HIERARCHY
ROOT joint_Root
{
	OFFSET 0.0 0.0 0.0
	CHANNELS 6 Xposition Yposition Zposition Zrotation Xrotation Yrotation 
	JOINT Hips
	{
		OFFSET -0.726466 93.3139 -2.00062
		CHANNELS 6 Xposition Yposition Zposition Zrotation Xrotation Yrotation 
		JOINT Spine
		{
			OFFSET 15.7357 0.0 0.0
			CHANNELS 6 Xposition Yposition Zposition Zrotation Xrotation Yrotation 
			JOINT Chest
			{
				OFFSET 8.98455 -0.406207 0.0
				CHANNELS 6 Xposition Yposition Zposition Zrotation Xrotation Yrotation 
				JOINT Neck
				{
					OFFSET 16.3773 0.0 0.0
					CHANNELS 6 Xposition Yposition Zposition Zrotation Xrotation Yrotation 
					JOINT Head
					{
						OFFSET 6.45672 0.0 0.0
						CHANNELS 6 Xposition Yposition Zposition Zrotation Xrotation Yrotation 
						End Site
						{
							OFFSET 0.0 0.0 0.0
						}
					}
				}
				JOINT Shoulder_L
				{
					OFFSET 12.9942 -0.242716 4.98039
					CHANNELS 6 Xposition Yposition Zposition Zrotation Xrotation Yrotation 
					JOINT UpperArm_L
					{
						OFFSET 5.34809 0.0 0.0
						CHANNELS 6 Xposition Yposition Zposition Zrotation Xrotation Yrotation 
						JOINT LowerArm_L
						{
							OFFSET 24.3286 1.87007e-05 0.0
							CHANNELS 6 Xposition Yposition Zposition Zrotation Xrotation Yrotation 
							JOINT Hand_L
							{
								OFFSET 22.2916 0.0 0.0
								CHANNELS 6 Xposition Yposition Zposition Zrotation Xrotation Yrotation 
								End Site
								{
									OFFSET 0.0 0.0 0.0
								}
							}
						}
					}
				}
				JOINT Shoulder_R
				{
					OFFSET 12.9945 -0.242716 -4.98039
					CHANNELS 6 Xposition Yposition Zposition Zrotation Xrotation Yrotation 
					JOINT UpperArm_R
					{
						OFFSET -5.34813 0.0 0.0
						CHANNELS 6 Xposition Yposition Zposition Zrotation Xrotation Yrotation 
						JOINT LowerArm_R
						{
							OFFSET -24.3289 0.000322201 0.0
							CHANNELS 6 Xposition Yposition Zposition Zrotation Xrotation Yrotation 
							JOINT Hand_R
							{
								OFFSET -22.2915 -0.000108084 0.0
								CHANNELS 6 Xposition Yposition Zposition Zrotation Xrotation Yrotation 
								End Site
								{
									OFFSET 0.0 0.0 0.0
								}
							}
						}
					}
				}
			}
		}
		JOINT UpperLeg_L
		{
			OFFSET -2.19248 -6.46944 0.0
			CHANNELS 6 Xposition Yposition Zposition Zrotation Xrotation Yrotation 
			JOINT LowerLeg_L
			{
				OFFSET 39.0811 0.0 -1.23785e-05
				CHANNELS 6 Xposition Yposition Zposition Zrotation Xrotation Yrotation 
				JOINT Foot_L
				{
					OFFSET 40.9854 0.0 -1.26872e-05
					CHANNELS 6 Xposition Yposition Zposition Zrotation Xrotation Yrotation 
					JOINT Toes_L
					{
						OFFSET 11.7543 0.0 0.0
						CHANNELS 6 Xposition Yposition Zposition Zrotation Xrotation Yrotation 
						End Site
						{
							OFFSET 0.0 0.0 0.0
						}
					}
				}
			}
		}
		JOINT UpperLeg_R
		{
			OFFSET -2.19251 6.46944 0.0
			CHANNELS 6 Xposition Yposition Zposition Zrotation Xrotation Yrotation 
			JOINT LowerLeg_R
			{
				OFFSET -39.0811 -0.00228153 -0.0401928
				CHANNELS 6 Xposition Yposition Zposition Zrotation Xrotation Yrotation 
				JOINT Foot_R
				{
					OFFSET -40.9854 0.0 0.0
					CHANNELS 6 Xposition Yposition Zposition Zrotation Xrotation Yrotation 
					JOINT Toes_R
					{
						OFFSET -11.7543 0.0 0.0
						CHANNELS 6 Xposition Yposition Zposition Zrotation Xrotation Yrotation 
						End Site
						{
							OFFSET 0.0 0.0 0.0
						}
					}
				}
			}
		}
	}
}
MOTION
Frames:	6
Frame Time:	0.0333333
0.000000 0.000000 0.000000 0.000000 0.000000 -0.000000 108.213000 89.063300 155.402000 -83.927300 33.031000 -177.957000 15.735700 0.000005 -0.000001 84.454900 82.370800 -83.076800 8.984550 -0.406207 -0.000000 7.442020 -1.472710 2.849140 16.377300 -0.000001 -0.000001 4.886230 5.861780 -1.306760 6.456720 -0.000001 -0.000000 3.006910 11.110000 -3.412920 12.994200 -0.242716 4.980390 -89.461900 -1.505230 -70.322600 5.348090 -0.000007 -0.000001 -67.680700 44.957600 -23.467400 24.328600 0.000019 0.000005 2.233270 2.911570 -37.538100 22.291600 -0.000001 0.000005 7.227100 5.522280 -7.445660 12.994500 -0.242716 -4.980390 88.205600 5.145970 -70.746200 -5.348130 -0.000001 -0.000004 -68.181400 31.442100 -9.740520 -24.328900 0.000322 -0.000009 4.659940 13.825000 -18.839200 -22.291500 -0.000108 -0.000004 2.677980 5.380650 -2.319600 -2.192480 -6.469440 -0.000000 172.847000 -6.647900 -12.384700 39.081100 -0.000007 -0.000012 0.028260 -0.041228 34.427800 40.985400 -0.000006 -0.000013 12.674300 -4.982210 -67.997700 11.754300 -0.000000 0.000003 -0.001049 -0.016106 -17.231800 -2.192510 6.469440 -0.000001 176.135000 5.614770 164.129000 -39.081100 -0.002282 -0.040193 -0.050628 0.019602 69.960900 -40.985400 0.000008 0.000006 0.782035 -2.647100 -43.062500 -11.754300 -0.000006 -0.000006 -0.026750 -0.202161 -24.847800
0.000000 0.000000 0.000000 0.000000 0.000000 -0.000000 109.834000 89.716800 153.088000 -83.071500 28.711100 -178.260000 15.735700 0.000005 -0.000001 80.706800 82.334400 -78.812700 8.984550 -0.406207 -0.000000 7.413050 -2.472310 3.944850 16.377300 -0.000001 -0.000001 5.018120 5.148750 -1.229320 6.456720 -0.000001 -0.000000 3.329770 10.757100 -2.792240 12.994200 -0.242716 4.980390 -89.313800 -1.981130 -70.889200 5.348090 -0.000007 -0.000001 -63.970600 46.448900 -28.861100 24.328600 0.000019 0.000005 1.535950 1.682290 -42.425500 22.291600 -0.000001 0.000005 8.017330 5.543320 -8.393540 12.994500 -0.242716 -4.980390 88.212000 4.921480 -70.005200 -5.348130 -0.000001 -0.000004 -70.908300 28.980100 -5.943120 -24.328900 0.000322 -0.000009 3.731250 11.166200 -18.615900 -22.291500 -0.000108 -0.000004 3.477680 5.390270 -2.622390 -2.192480 -6.469440 -0.000000 174.219000 -4.761130 -8.605130 39.081100 -0.000007 -0.000012 -0.008497 0.013715 31.783800 40.985400 -0.000006 -0.000013 12.930400 -2.550320 -68.964200 11.754300 -0.000000 0.000003 -0.000583 -0.009303 -16.955400 -2.192510 6.469440 -0.000001 177.464000 4.355220 162.265000 -39.081100 -0.002282 -0.040193 -0.069597 0.034036 64.931400 -40.985400 0.000008 0.000006 3.120800 -5.648360 -46.725300 -11.754300 -0.000006 -0.000006 -0.025537 -0.196229 -24.602400
0.000000 0.000000 0.000000 0.000000 0.000000 -0.000000 111.451000 90.341600 150.851000 -82.209200 24.494100 -178.460000 15.735700 0.000005 -0.000001 77.259000 82.170300 -74.868400 8.984550 -0.406207 -0.000000 7.594680 -3.443660 5.006070 16.377300 -0.000001 -0.000001 4.868250 4.485410 -0.970393 6.456720 -0.000001 -0.000000 3.275250 10.303900 -2.259910 12.994200 -0.242716 4.980390 -89.199500 -2.353900 -71.211900 5.348090 -0.000007 -0.000001 -59.745400 47.101500 -34.812300 24.328600 0.000019 0.000005 1.020630 0.975394 -46.312300 22.291600 -0.000001 0.000005 8.110730 5.552570 -8.829110 12.994500 -0.242716 -4.980390 88.142600 4.934260 -69.342700 -5.348130 -0.000001 -0.000004 -72.498100 26.756800 -3.385370 -24.328900 0.000322 -0.000009 3.002180 9.143640 -18.270100 -22.291500 -0.000108 -0.000004 4.143100 5.396170 -2.812430 -2.192480 -6.469440 -0.000000 175.690000 -2.108850 -4.794430 39.081100 -0.000007 -0.000012 -0.049600 0.090361 28.763200 40.985400 -0.000006 -0.000013 12.849300 -0.882265 -69.511800 11.754300 -0.000000 0.000003 -0.000374 -0.006070 -16.824000 -2.192510 6.469440 -0.000001 178.541000 2.553420 161.442000 -39.081100 -0.002282 -0.040193 -0.056387 0.038700 57.005000 -40.985400 0.000008 0.000006 4.101710 -8.505740 -49.603000 -11.754300 -0.000006 -0.000006 -0.024461 -0.190850 -24.380000
0.000000 0.000000 0.000000 0.000000 0.000000 -0.000000 113.012000 90.723100 148.787000 -81.822600 21.025000 -178.953000 15.735700 0.000005 -0.000001 74.627700 82.253300 -71.947200 8.984550 -0.406207 -0.000000 7.289260 -4.103350 5.618690 16.377300 -0.000001 -0.000001 4.813240 3.886250 -0.586359 6.456720 -0.000001 -0.000000 3.099120 9.871510 -1.792370 12.994200 -0.242716 4.980390 -89.055800 -2.831250 -71.547900 5.348090 -0.000007 -0.000001 -56.161300 47.177500 -39.752300 24.328600 0.000019 0.000005 1.025700 0.875807 -49.507500 22.291600 -0.000001 0.000005 8.182810 5.558250 -9.102000 12.994500 -0.242716 -4.980390 88.069200 4.981770 -68.783500 -5.348130 -0.000001 -0.000004 -73.390900 25.575400 -1.701060 -24.328900 0.000322 -0.000009 2.841040 9.125440 -17.381600 -22.291500 -0.000108 -0.000004 4.984690 5.396710 -2.831120 -2.192480 -6.469440 -0.000000 176.804000 -0.135493 -2.115050 39.081100 -0.000007 -0.000012 -0.074070 0.150010 26.278800 40.985400 -0.000006 -0.000013 12.734300 0.761131 -70.168100 11.754300 -0.000000 0.000003 -0.000279 -0.004565 -16.762900 -2.192510 6.469440 -0.000001 178.847000 0.055022 160.557000 -39.081100 -0.002282 -0.040193 -0.032471 0.032926 47.336800 -40.985400 0.000008 0.000006 3.921250 -10.611200 -51.525900 -11.754300 -0.000006 -0.000006 -0.023512 -0.186020 -24.180400
0.000000 0.000000 0.000000 0.000000 0.000000 -0.000000 114.523000 90.798400 146.765000 -81.876700 18.223700 -179.459000 15.735700 0.000005 -0.000001 72.600500 82.395500 -69.829300 8.984550 -0.406207 -0.000000 6.880190 -4.554380 5.812820 16.377300 -0.000001 -0.000001 4.655630 3.427930 -0.084965 6.456720 -0.000001 -0.000000 2.945840 9.340870 -1.382670 12.994200 -0.242716 4.980390 -88.919600 -3.282780 -71.771600 5.348090 -0.000007 -0.000001 -53.377100 46.749600 -43.631300 24.328600 0.000019 0.000005 1.225420 0.962002 -51.868700 22.291600 -0.000001 0.000005 8.300590 5.562720 -9.321270 12.994500 -0.242716 -4.980390 88.017900 5.032010 -68.467900 -5.348130 -0.000001 -0.000004 -73.727300 25.438400 -1.097010 -24.328900 0.000322 -0.000009 2.870850 10.254800 -15.739200 -22.291500 -0.000108 -0.000004 5.310090 5.389320 -2.593420 -2.192480 -6.469440 -0.000000 177.586000 1.000570 -0.152522 39.081100 -0.000007 -0.000012 -0.089009 0.193582 24.693000 40.985400 -0.000006 -0.000013 12.691400 2.444120 -71.328400 11.754300 -0.000000 0.000003 -0.000000 -0.000001 -16.577500 -2.192510 6.469440 -0.000001 178.572000 -1.312690 159.727000 -39.081100 -0.002282 -0.040193 -0.007309 0.014128 36.868800 -40.985400 0.000008 0.000006 4.098460 -10.922700 -51.937600 -11.754300 -0.000006 -0.000006 -0.023692 -0.186941 -24.218500
0.000000 0.000000 0.000000 0.000000 0.000000 -0.000000 116.000000 90.635300 144.689000 -82.510600 16.199400 -179.914000 15.735700 0.000005 -0.000001 71.294600 82.591900 -68.657600 8.984550 -0.406207 -0.000000 6.400060 -4.769040 5.537550 16.377300 -0.000001 -0.000001 4.432040 2.920260 0.242113 6.456720 -0.000001 -0.000000 2.777640 8.884620 -0.880240 12.994200 -0.242716 4.980390 -88.860600 -3.519220 -72.047200 5.348090 -0.000007 -0.000001 -51.612200 45.984800 -45.899900 24.328600 0.000019 0.000005 1.093780 0.803519 -53.710800 22.291600 -0.000001 0.000005 8.490460 5.567010 -9.537000 12.994500 -0.242716 -4.980390 88.002800 5.045420 -68.370500 -5.348130 -0.000001 -0.000004 -73.709800 25.496900 -1.397790 -24.328900 0.000322 -0.000009 2.737750 11.536600 -13.453600 -22.291500 -0.000108 -0.000004 5.200090 5.376550 -2.189980 -2.192480 -6.469440 -0.000000 177.962000 1.003540 1.506840 39.081100 -0.000007 -0.000012 -0.108719 0.249901 23.511400 40.985400 -0.000006 -0.000013 12.778100 4.431130 -72.851900 11.754300 -0.000000 0.000003 -0.000001 -0.000010 -16.577900 -2.192510 6.469440 -0.000001 178.374000 0.453292 159.072000 -39.081100 -0.002282 -0.040193 0.005497 -0.004472 26.065500 -40.985400 0.000008 0.000006 2.915870 -7.195110 -52.437600 -11.754300 -0.000006 -0.000006 -0.024876 -0.192938 -24.466300
